<?xml version="1.0" encoding="utf-8" ?>
<svg baseProfile="full" height="2256" version="1.1" viewBox="0,0,1600,2256" width="1600" xmlns="http://www.w3.org/2000/svg" xmlns:ev="http://www.w3.org/2001/xml-events" xmlns:xlink="http://www.w3.org/1999/xlink"><defs><marker id="id1" markerHeight="10" markerUnits="strokeWidth" markerWidth="10" orient="auto" refX="10" refY="5"><path d="M0,0 L10,5 L0,10 z" fill="#0F172A" /></marker><marker id="id2" markerHeight="10" markerUnits="strokeWidth" markerWidth="10" orient="auto" refX="10" refY="5"><path d="M0,0 L10,5 L0,10 z" fill="#64748B" /></marker></defs><rect fill="white" height="2256" width="1600" x="0" y="0" /><text fill="#0F172A" font-family="Arial" font-size="24" font-weight="bold" text-anchor="middle" x="800.0" y="35">Baseline Memory Request — Message Sequence</text><rect fill="#E0F2FE" height="48" rx="8" ry="8" stroke="#2563EB" stroke-width="1.6" width="144" x="18.0" y="71" /><text fill="#0F172A" font-family="Arial" font-size="13" font-weight="bold" text-anchor="middle" x="90.0" y="100">CPU</text><line stroke="#64748B" stroke-dasharray="6,5" stroke-width="1.1" x1="90.0" x2="90.0" y1="145" y2="2221" /><rect fill="#E0F2FE" height="48" rx="8" ry="8" stroke="#2563EB" stroke-width="1.6" width="144" x="373.0" y="71" /><text fill="#0F172A" font-family="Arial" font-size="13" font-weight="bold" text-anchor="middle" x="445.0" y="100">System</text><line stroke="#64748B" stroke-dasharray="6,5" stroke-width="1.1" x1="445.0" x2="445.0" y1="145" y2="2221" /><rect fill="#E0F2FE" height="48" rx="8" ry="8" stroke="#2563EB" stroke-width="1.6" width="144" x="728.0" y="71" /><text fill="#0F172A" font-family="Arial" font-size="13" font-weight="bold" text-anchor="middle" x="800.0" y="100">L1 Cache</text><line stroke="#64748B" stroke-dasharray="6,5" stroke-width="1.1" x1="800.0" x2="800.0" y1="145" y2="2221" /><rect fill="#E0F2FE" height="48" rx="8" ry="8" stroke="#2563EB" stroke-width="1.6" width="144" x="1083.0" y="71" /><text fill="#0F172A" font-family="Arial" font-size="13" font-weight="bold" text-anchor="middle" x="1155.0" y="100">L2 Cache</text><line stroke="#64748B" stroke-dasharray="6,5" stroke-width="1.1" x1="1155.0" x2="1155.0" y1="145" y2="2221" /><rect fill="#E0F2FE" height="48" rx="8" ry="8" stroke="#2563EB" stroke-width="1.6" width="144" x="1438.0" y="71" /><text fill="#0F172A" font-family="Arial" font-size="13" font-weight="bold" text-anchor="middle" x="1510.0" y="100">Main Memory</text><line stroke="#64748B" stroke-dasharray="6,5" stroke-width="1.1" x1="1510.0" x2="1510.0" y1="145" y2="2221" /><line marker-end="url(#id1)" stroke="#0F172A" stroke-width="1.5" x1="90.0" x2="445.0" y1="180" y2="180" /><text fill="#0F172A" font-family="Arial" font-size="12" font-weight="normal" text-anchor="middle" x="267.5" y="171">Request(address, op, size)</text><line marker-end="url(#id1)" stroke="#0F172A" stroke-width="1.5" x1="445.0" x2="800.0" y1="228" y2="228" /><text fill="#0F172A" font-family="Arial" font-size="12" font-weight="normal" text-anchor="middle" x="622.5" y="219">Lookup(request)</text><line marker-end="url(#id2)" stroke="#64748B" stroke-dasharray="7,4" stroke-width="1.5" x1="800.0" x2="445.0" y1="310" y2="310" /><text fill="#0F172A" font-family="Arial" font-size="12" font-weight="normal" text-anchor="middle" x="622.5" y="301">Hit(block)</text><line marker-end="url(#id1)" stroke="#0F172A" stroke-width="1.5" x1="445.0" x2="800.0" y1="392" y2="392" /><text fill="#0F172A" font-family="Arial" font-size="12" font-weight="normal" text-anchor="middle" x="622.5" y="383">Insert(block, Dirty=true)</text><rect fill="none" height="92" rx="5" ry="5" stroke="#94A3B8" stroke-width="1.2" width="1510" x="45" y="340" /><rect fill="#E2E8F0" height="24" stroke="#94A3B8" stroke-width="1.0" width="145" x="45" y="340" /><text fill="#0F172A" font-family="Arial" font-size="12" font-weight="bold" text-anchor="start" x="55" y="357">Write</text><line marker-end="url(#id2)" stroke="#64748B" stroke-dasharray="7,4" stroke-width="1.5" x1="445.0" x2="90.0" y1="464" y2="464" /><text fill="#0F172A" font-family="Arial" font-size="12" font-weight="normal" text-anchor="middle" x="267.5" y="455">Response(location=L1)</text><line marker-end="url(#id2)" stroke="#64748B" stroke-dasharray="7,4" stroke-width="1.5" x1="800.0" x2="445.0" y1="546" y2="546" /><text fill="#0F172A" font-family="Arial" font-size="12" font-weight="normal" text-anchor="middle" x="622.5" y="537">Miss</text><line marker-end="url(#id1)" stroke="#0F172A" stroke-width="1.5" x1="445.0" x2="1155.0" y1="594" y2="594" /><text fill="#0F172A" font-family="Arial" font-size="12" font-weight="normal" text-anchor="middle" x="800.0" y="585">Lookup(request)</text><line marker-end="url(#id2)" stroke="#64748B" stroke-dasharray="7,4" stroke-width="1.5" x1="1155.0" x2="445.0" y1="676" y2="676" /><text fill="#0F172A" font-family="Arial" font-size="12" font-weight="normal" text-anchor="middle" x="800.0" y="667">Hit(block)</text><line marker-end="url(#id1)" stroke="#0F172A" stroke-width="1.5" x1="445.0" x2="1155.0" y1="758" y2="758" /><text fill="#0F172A" font-family="Arial" font-size="12" font-weight="normal" text-anchor="middle" x="800.0" y="749">Insert(block, Dirty=true)</text><rect fill="none" height="92" rx="5" ry="5" stroke="#94A3B8" stroke-width="1.2" width="1510" x="45" y="706" /><rect fill="#E2E8F0" height="24" stroke="#94A3B8" stroke-width="1.0" width="145" x="45" y="706" /><text fill="#0F172A" font-family="Arial" font-size="12" font-weight="bold" text-anchor="start" x="55" y="723">Write</text><line marker-end="url(#id1)" stroke="#0F172A" stroke-width="1.5" x1="445.0" x2="800.0" y1="830" y2="830" /><text fill="#0F172A" font-family="Arial" font-size="12" font-weight="normal" text-anchor="middle" x="622.5" y="821">Insert(block)</text><line marker-end="url(#id2)" stroke="#64748B" stroke-dasharray="7,4" stroke-width="1.5" x1="800.0" x2="445.0" y1="878" y2="878" /><text fill="#0F172A" font-family="Arial" font-size="12" font-weight="normal" text-anchor="middle" x="622.5" y="869">optional evicted L1 block</text><line marker-end="url(#id1)" stroke="#0F172A" stroke-width="1.5" x1="445.0" x2="1155.0" y1="960" y2="960" /><text fill="#0F172A" font-family="Arial" font-size="12" font-weight="normal" text-anchor="middle" x="800.0" y="951">Insert(evicted block)</text><line marker-end="url(#id2)" stroke="#64748B" stroke-dasharray="7,4" stroke-width="1.5" x1="1155.0" x2="445.0" y1="1008" y2="1008" /><text fill="#0F172A" font-family="Arial" font-size="12" font-weight="normal" text-anchor="middle" x="800.0" y="999">optional evicted L2 block</text><line marker-end="url(#id1)" stroke="#0F172A" stroke-width="1.5" x1="445.0" x2="1510.0" y1="1090" y2="1090" /><text fill="#0F172A" font-family="Arial" font-size="12" font-weight="normal" text-anchor="middle" x="977.5" y="1081">WriteBlock(evicted block)</text><rect fill="none" height="92" rx="5" ry="5" stroke="#94A3B8" stroke-width="1.2" width="1510" x="45" y="1038" /><rect fill="#E2E8F0" height="24" stroke="#94A3B8" stroke-width="1.0" width="145" x="45" y="1038" /><text fill="#0F172A" font-family="Arial" font-size="12" font-weight="bold" text-anchor="start" x="55" y="1055">Dirty L2 eviction</text><rect fill="none" height="246" rx="5" ry="5" stroke="#94A3B8" stroke-width="1.2" width="1510" x="45" y="908" /><rect fill="#E2E8F0" height="24" stroke="#94A3B8" stroke-width="1.0" width="145" x="45" y="908" /><text fill="#0F172A" font-family="Arial" font-size="12" font-weight="bold" text-anchor="start" x="55" y="925">Valid L1 eviction</text><line marker-end="url(#id2)" stroke="#64748B" stroke-dasharray="7,4" stroke-width="1.5" x1="445.0" x2="90.0" y1="1186" y2="1186" /><text fill="#0F172A" font-family="Arial" font-size="12" font-weight="normal" text-anchor="middle" x="267.5" y="1177">Response(location=L2)</text><line marker-end="url(#id2)" stroke="#64748B" stroke-dasharray="7,4" stroke-width="1.5" x1="1155.0" x2="445.0" y1="1268" y2="1268" /><text fill="#0F172A" font-family="Arial" font-size="12" font-weight="normal" text-anchor="middle" x="800.0" y="1259">Miss</text><line marker-end="url(#id1)" stroke="#0F172A" stroke-width="1.5" x1="445.0" x2="1510.0" y1="1316" y2="1316" /><text fill="#0F172A" font-family="Arial" font-size="12" font-weight="normal" text-anchor="middle" x="977.5" y="1307">ReadBlock(blockAddress)</text><line marker-end="url(#id2)" stroke="#64748B" stroke-dasharray="7,4" stroke-width="1.5" x1="1510.0" x2="445.0" y1="1364" y2="1364" /><text fill="#0F172A" font-family="Arial" font-size="12" font-weight="normal" text-anchor="middle" x="977.5" y="1355">Block</text><rect fill="#FEF3C7" height="46" rx="5" ry="5" stroke="#D97706" stroke-width="1.1" width="40.0" x="425.0" y="1428" /><text fill="#0F172A" font-family="Arial" font-size="11" font-weight="bold" text-anchor="middle" x="445.0" y="1448">Mark fetched block Dirty (write-allocate)</text><rect fill="none" height="106" rx="5" ry="5" stroke="#94A3B8" stroke-width="1.2" width="1510" x="45" y="1394" /><rect fill="#E2E8F0" height="24" stroke="#94A3B8" stroke-width="1.0" width="145" x="45" y="1394" /><text fill="#0F172A" font-family="Arial" font-size="12" font-weight="bold" text-anchor="start" x="55" y="1411">Original request is Write</text><line marker-end="url(#id1)" stroke="#0F172A" stroke-width="1.5" x1="445.0" x2="1155.0" y1="1532" y2="1532" /><text fill="#0F172A" font-family="Arial" font-size="12" font-weight="normal" text-anchor="middle" x="800.0" y="1523">Insert(fetched block)</text><line marker-end="url(#id2)" stroke="#64748B" stroke-dasharray="7,4" stroke-width="1.5" x1="1155.0" x2="445.0" y1="1580" y2="1580" /><text fill="#0F172A" font-family="Arial" font-size="12" font-weight="normal" text-anchor="middle" x="800.0" y="1571">optional evicted L2 block</text><line marker-end="url(#id1)" stroke="#0F172A" stroke-width="1.5" x1="445.0" x2="1510.0" y1="1662" y2="1662" /><text fill="#0F172A" font-family="Arial" font-size="12" font-weight="normal" text-anchor="middle" x="977.5" y="1653">WriteBlock(evicted block)</text><rect fill="none" height="92" rx="5" ry="5" stroke="#94A3B8" stroke-width="1.2" width="1510" x="45" y="1610" /><rect fill="#E2E8F0" height="24" stroke="#94A3B8" stroke-width="1.0" width="145" x="45" y="1610" /><text fill="#0F172A" font-family="Arial" font-size="12" font-weight="bold" text-anchor="start" x="55" y="1627">Dirty L2 eviction</text><line marker-end="url(#id1)" stroke="#0F172A" stroke-width="1.5" x1="445.0" x2="800.0" y1="1734" y2="1734" /><text fill="#0F172A" font-family="Arial" font-size="12" font-weight="normal" text-anchor="middle" x="622.5" y="1725">Insert(fetched block)</text><line marker-end="url(#id2)" stroke="#64748B" stroke-dasharray="7,4" stroke-width="1.5" x1="800.0" x2="445.0" y1="1782" y2="1782" /><text fill="#0F172A" font-family="Arial" font-size="12" font-weight="normal" text-anchor="middle" x="622.5" y="1773">optional evicted L1 block</text><line marker-end="url(#id1)" stroke="#0F172A" stroke-width="1.5" x1="445.0" x2="1155.0" y1="1864" y2="1864" /><text fill="#0F172A" font-family="Arial" font-size="12" font-weight="normal" text-anchor="middle" x="800.0" y="1855">Insert(evicted block)</text><line marker-end="url(#id2)" stroke="#64748B" stroke-dasharray="7,4" stroke-width="1.5" x1="1155.0" x2="445.0" y1="1912" y2="1912" /><text fill="#0F172A" font-family="Arial" font-size="12" font-weight="normal" text-anchor="middle" x="800.0" y="1903">optional evicted L2 block</text><line marker-end="url(#id1)" stroke="#0F172A" stroke-width="1.5" x1="445.0" x2="1510.0" y1="1994" y2="1994" /><text fill="#0F172A" font-family="Arial" font-size="12" font-weight="normal" text-anchor="middle" x="977.5" y="1985">WriteBlock(evicted block)</text><rect fill="none" height="92" rx="5" ry="5" stroke="#94A3B8" stroke-width="1.2" width="1510" x="45" y="1942" /><rect fill="#E2E8F0" height="24" stroke="#94A3B8" stroke-width="1.0" width="145" x="45" y="1942" /><text fill="#0F172A" font-family="Arial" font-size="12" font-weight="bold" text-anchor="start" x="55" y="1959">Dirty L2 eviction</text><rect fill="none" height="246" rx="5" ry="5" stroke="#94A3B8" stroke-width="1.2" width="1510" x="45" y="1812" /><rect fill="#E2E8F0" height="24" stroke="#94A3B8" stroke-width="1.0" width="145" x="45" y="1812" /><text fill="#0F172A" font-family="Arial" font-size="12" font-weight="bold" text-anchor="start" x="55" y="1829">Valid L1 eviction</text><line marker-end="url(#id2)" stroke="#64748B" stroke-dasharray="7,4" stroke-width="1.5" x1="445.0" x2="90.0" y1="2090" y2="2090" /><text fill="#0F172A" font-family="Arial" font-size="12" font-weight="normal" text-anchor="middle" x="267.5" y="2081">Response(location=Memory)</text><rect fill="none" height="1506" rx="5" ry="5" stroke="#94A3B8" stroke-width="1.2" width="1510" x="45" y="624" /><rect fill="#E2E8F0" height="24" stroke="#94A3B8" stroke-width="1.0" width="145" x="45" y="624" /><text fill="#0F172A" font-family="Arial" font-size="12" font-weight="bold" text-anchor="start" x="55" y="641">L2 hit</text><line stroke="#94A3B8" stroke-dasharray="5,4" stroke-width="1.0" x1="45" x2="1555" y1="1222" y2="1222" /><text fill="#0F172A" font-family="Arial" font-size="12" font-weight="bold" text-anchor="start" x="55" y="1240">L2 miss</text><rect fill="none" height="1896" rx="5" ry="5" stroke="#94A3B8" stroke-width="1.2" width="1510" x="45" y="258" /><rect fill="#E2E8F0" height="24" stroke="#94A3B8" stroke-width="1.0" width="145" x="45" y="258" /><text fill="#0F172A" font-family="Arial" font-size="12" font-weight="bold" text-anchor="start" x="55" y="275">L1 hit</text><line stroke="#94A3B8" stroke-dasharray="5,4" stroke-width="1.0" x1="45" x2="1555" y1="500" y2="500" /><text fill="#0F172A" font-family="Arial" font-size="12" font-weight="bold" text-anchor="start" x="55" y="518">L1 miss</text></svg>